<svg version="1.2" xmlns="http://www.w3.org/2000/svg" viewBox="0 0 428 285" width="428" height="285">
	<style>
		.s0 { fill: #000000;stroke: #000000;stroke-linejoin: round;stroke-width: 2.1 } 
	</style>
	<g id="SVGRepo_bgCarrier">
	</g>
	<g id="SVGRepo_tracerCarrier">
	</g>
	<g id="SVGRepo_iconCarrier">
		<path class="s0" d="m214 34c33.33 0 129.17-83.33 179.17 16.67 50 100 37.5 233.33 4.16 233.33-83.33 0-33.33-83.33-183.33-83.33-150 0-100 83.33-183.33 83.33-33.34 0-45.84-133.33 4.16-233.33 50-100 145.84-16.67 179.17-16.67zm-116.67 37.5v29.17h-29.16v33.33h29.16v29.17h33.34v-29.17h29.16v-33.33h-29.16v-29.17zm191.66 20.83c-9.2 0-16.66 7.47-16.66 16.67 0 9.21 7.46 16.67 16.66 16.67 9.21 0 16.67-7.46 16.67-16.67 0-9.2-7.46-16.67-16.67-16.67zm33.34-29.16c-9.21 0-16.67 7.46-16.67 16.66 0 9.21 7.46 16.67 16.67 16.67 9.2 0 16.66-7.46 16.66-16.67 0-9.2-7.46-16.66-16.66-16.66zm0 62.5c-9.21 0-16.67 7.46-16.67 16.66 0 9.21 7.46 16.67 16.67 16.67 9.2 0 16.66-7.46 16.66-16.67 0-9.2-7.46-16.66-16.66-16.66zm33.33-33.34c-9.21 0-16.67 7.46-16.67 16.67 0 9.21 7.46 16.67 16.67 16.67 9.2 0 16.67-7.46 16.67-16.67 0-9.21-7.47-16.67-16.67-16.67z"/>
	</g>
</svg>