<svg version="1.2" xmlns="http://www.w3.org/2000/svg" viewBox="0 0 800 628" width="200" height="157">
	<style>
		.s0 { fill: #f18701 } 
	</style>
	<g id="SVGRepo_bgCarrier">
	</g>
	<g id="SVGRepo_tracerCarrier">
	</g>
	<g id="SVGRepo_iconCarrier">
		<g>
			<path class="s0" d="m797.93 89.43c-3.6-18.17-11.66-34.79-22.9-48.52-2.38-2.99-4.85-5.67-7.54-8.35-19.93-20.03-47.9-32.53-78.46-32.53h-578.06c-30.56 0-58.43 12.5-78.45 32.53-2.68 2.68-5.16 5.36-7.54 8.35-11.25 13.73-19.31 30.35-22.81 48.52-1.45 7.01-2.17 14.26-2.17 21.58v405.99c0 15.58 3.3 30.55 9.19 44.07 5.47 12.9 13.52 24.58 23.33 34.37 2.48 2.48 4.95 4.76 7.64 7.03 19.2 15.89 43.98 25.5 70.81 25.5h578.06c26.84 0 51.73-9.61 70.82-25.6 2.68-2.17 5.16-4.45 7.64-6.93 9.8-9.79 17.85-21.47 23.43-34.37v-0.1c5.89-13.52 9.08-28.4 9.08-43.97v-405.99c0-7.32-0.71-14.57-2.07-21.58zm-725.26-16.73c9.91-9.9 23.23-15.89 38.3-15.89h578.06c15.07 0 28.5 5.99 38.3 15.89 1.75 1.77 3.4 3.73 4.86 5.69l-302.98 264.05c-8.35 7.33-18.68 10.94-29.21 10.94-10.43 0-20.74-3.61-29.21-10.94l-302.86-264.17c1.34-1.95 2.99-3.8 4.74-5.57zm-15.9 444.3v-379.98l219.26 191.28-219.15 191.07c-0.11-0.73-0.11-1.54-0.11-2.37zm632.26 54.18h-578.06c-9.81 0-19-2.58-26.83-7.11l231.21-201.5 21.59 18.78c18.06 15.7 40.67 23.65 63.06 23.65 22.51 0 45.11-7.95 63.18-23.65l21.57-18.78 231.13 201.5c-7.85 4.53-17.04 7.11-26.85 7.11zm54.2-54.18c0 0.83 0 1.64-0.11 2.37l-219.14-190.96 219.25-191.28z"/>
		</g>
	</g>
</svg>