<svg version="1.2" xmlns="http://www.w3.org/2000/svg" viewBox="0 0 800 588" width="800" height="588">
	<style>
		.s0 { fill: #000000 } 
	</style>
	<g>
		<path class="s0" d="m798.87 418.79c-21.4-285.69-132.32-418.84-247.17-418.84-86.44 0-114.25 61.68-151.7 61.68-37.44 0-65.35-61.68-151.7-61.68-114.85 0-225.77 133.15-247.17 418.84-8.16 90.43 28.49 148.01 87.56 165.4 59.72 17.59 132.7-25.85 192.86-113.23 26.8-38.95 72.29-91.35 118.45-91.35 46.16 0 91.65 52.4 118.45 91.35 60.17 87.38 133.14 130.82 192.86 113.23 59.09-17.39 95.72-74.97 87.56-165.4zm-488.41-130.39h-57.99v58h-63.61v-58h-57.99v-63.6h57.99v-58h63.61v58h57.99zm192.53 8.36c-18.54 0-33.55-15-33.55-33.54 0-18.52 15.01-33.53 33.55-33.53 18.52 0 33.55 15.01 33.55 33.53 0 18.54-15.03 33.54-33.55 33.54zm81.03 81.05c-18.51 0-33.52-15.01-33.52-33.55 0-18.52 15.01-33.53 33.52-33.53 18.53 0 33.54 15.01 33.54 33.53 0 18.54-15.01 33.55-33.54 33.55zm0-162.09c-18.51 0-33.52-15.02-33.52-33.55 0-18.53 15.01-33.54 33.52-33.54 18.53 0 33.54 15.01 33.54 33.54 0 18.53-15.01 33.55-33.54 33.55zm81.05 81.04c-18.53 0-33.55-15-33.55-33.54 0-18.52 15.02-33.53 33.55-33.53 18.53 0 33.54 15.01 33.54 33.53 0 18.54-15.01 33.54-33.54 33.54z"/>
	</g>
</svg>