<svg version="1.2" xmlns="http://www.w3.org/2000/svg" viewBox="0 0 600 600" width="150" height="150">
	<style>
		.s0 { fill: none;stroke: #000000;stroke-linecap: round;stroke-linejoin: round;stroke-width: 56.7 } 
	</style>
	<path class="s0" d="m34.8 509.34c-1.47-11.94-1.47-27.42-1.47-49.34v-320c0-37.34 0-56.01 7.27-70.27 6.39-12.54 16.59-22.74 29.13-29.13 14.26-7.27 32.93-7.27 70.27-7.27h320c37.34 0 56.01 0 70.27 7.27 12.54 6.39 22.74 16.59 29.13 29.13 7.27 14.26 7.27 32.93 7.27 70.27v309.78m-191.21-18.53l11.38-11.28c26.87-26.64 40.3-39.96 55.71-44.83 13.55-4.27 28.12-4.1 41.57 0.48 15.29 5.22 28.42 18.84 54.66 46.09l27.89 28.07m-191.21-18.53l133.71 133.97m0 0c-11.92 1.45-27.36 1.45-49.17 1.45h-320c-37.34 0-56.01 0-70.27-7.27-12.54-6.39-22.74-16.59-29.13-29.13-3-5.89-4.76-12.53-5.8-20.93m474.37 55.88c8.47-1.03 15.17-2.8 21.1-5.82 12.54-6.39 22.74-16.59 29.13-29.13 7.27-14.26 7.27-32.93 7.27-70.27v-10.22m-191.21-18.53l-55.6-55.14c-26.83-26.61-40.25-39.91-55.64-44.77-13.54-4.28-28.09-4.12-41.54 0.45-15.28 5.19-28.41 18.78-54.66 45.96l-133.22 131.59m431.87-309.34c0 36.82-29.85 66.66-66.67 66.66-36.82 0-66.67-29.84-66.67-66.66 0-36.82 29.85-66.67 66.67-66.67 36.82 0 66.67 29.85 66.67 66.67z"/>
</svg>