<svg version="1.2" xmlns="http://www.w3.org/2000/svg" viewBox="0 0 800 800" width="200" height="200">
	<style>
		.s0 { fill: #ffffff } 
	</style>
	<g id="SVGRepo_bgCarrier">
	</g>
	<g id="SVGRepo_tracerCarrier">
	</g>
	<g id="SVGRepo_iconCarrier">
		<g id="Page-1">
			<g id="Dribbble-Light-Preview">
				<g id="icons">
					<path id="linkedin-[#0b3c0b]" fill-rule="evenodd" class="s0" d="m800 800h-160v-279.96c0-76.8-33.88-119.64-94.64-119.64-66.12 0-105.36 44.64-105.36 119.64v279.96h-160v-520h160v58.48c0 0 50.2-88.08 163.32-88.08 113.16 0 196.68 69.04 196.68 211.92zm-702.32-603.16c-53.96 0-97.68-44.08-97.68-98.44 0-54.32 43.72-98.4 97.68-98.4 53.92 0 97.64 44.08 97.64 98.4 0.04 54.36-43.72 98.44-97.64 98.44zm-97.68 83.16h200v520h-200z"/>
				</g>
			</g>
		</g>
	</g>
</svg>