<svg version="1.2" xmlns="http://www.w3.org/2000/svg" viewBox="0 0 700 369" width="500" height="264">
	<defs>
		<radialGradient id="g1" cx="0" cy="0" r="1" gradientUnits="userSpaceOnUse" gradientTransform="matrix(459.6,0,0,459.6,210.15,64.625)">
			<stop offset="0" stop-color="#ffffff"/>
			<stop offset=".5" stop-color="#4c6b96"/>
			<stop offset="1" stop-color="#231f20"/>
		</radialGradient>
	</defs>
	<style>
		.s0 { fill: url(#g1) } 
		.s1 { fill: #6280b6 } 
		.s2 { fill: #ffffff } 
		.s3 { fill: #000004 } 
	</style>
	<path fill-rule="evenodd" class="s0" d="m350 368.13c-193.55 0-350-82.31-350-184.13 0-101.82 156.45-184.13 350-184.13 193.55 0 350 82.31 350 184.13 0 101.82-156.45 184.13-350 184.13z"/>
	<path fill-rule="evenodd" class="s1" d="m350 354.45c-185.99 0-336.32-76.19-336.32-170.45 0-94.26 150.33-170.45 336.32-170.45 185.99 0 336.32 76.19 336.32 170.45 0 94.26-150.33 170.45-336.32 170.45z"/>
	<path class="s2" d="m418.13 239l16.67-85.85c1.18-3.66 1.88-7.46 2.07-11.29 0.19-3.84-0.12-7.69-0.94-11.45-0.81-3.76-2.11-7.39-3.88-10.81-1.76-3.41-3.96-6.58-6.55-9.43q-5.4-3.83-11.4-6.63-6-2.8-12.4-4.49-6.41-1.68-13.01-2.18-6.6-0.51-13.19 0.18h-28.82l8.27-42.5q0.23-1.2-0.08-2.39-0.3-1.18-1.08-2.12-0.78-0.94-1.89-1.47-1.1-0.52-2.33-0.52h-39.99q-0.96 0-1.85 0.32-0.9 0.32-1.64 0.93-0.73 0.6-1.22 1.42-0.49 0.82-0.67 1.75l-17.72 91.15q-0.51-3.63-1.54-7.16-1.02-3.52-2.53-6.87-1.52-3.34-3.49-6.44-1.97-3.09-4.37-5.88c-3.56-3.56-7.51-6.74-11.76-9.45-4.25-2.72-8.78-4.97-13.51-6.7-4.74-1.74-9.65-2.96-14.65-3.63-5-0.68-10.05-0.81-15.08-0.39h-77.05q-0.95 0-1.85 0.32-0.9 0.32-1.63 0.93-0.74 0.6-1.22 1.42-0.49 0.82-0.67 1.75l-35.85 184.5q-0.23 1.21 0.07 2.39 0.31 1.18 1.08 2.13 0.79 0.94 1.89 1.46 1.11 0.52 2.33 0.53l40.07-0.01q0.96 0 1.85-0.32 0.9-0.32 1.64-0.92 0.73-0.61 1.22-1.43 0.49-0.82 0.67-1.75l8.67-44.63h30q4.96 0.14 9.92-0.11 4.96-0.25 9.88-0.88 4.92-0.62 9.78-1.63 4.86-1 9.62-2.38 4.02-1.32 7.86-3.08 3.85-1.77 7.47-3.94 3.63-2.17 6.99-4.73 3.37-2.56 6.44-5.47 2.51-2.29 4.84-4.77 2.33-2.48 4.47-5.13 2.13-2.64 4.06-5.45 1.92-2.81 3.62-5.75l-7.17 36.87q-0.23 1.21 0.08 2.39 0.3 1.18 1.08 2.13 0.78 0.94 1.89 1.46 1.1 0.52 2.32 0.52h40q0.96 0 1.85-0.32 0.9-0.32 1.64-0.92 0.73-0.61 1.22-1.43 0.49-0.82 0.67-1.75l19.67-101.28h27.35c11.66 0 15 2.33 16 3.33 1 1 2.51 4.13 0.63 14.22l-15.88 81.63q-0.22 1.2 0.08 2.39 0.31 1.18 1.08 2.12 0.79 0.94 1.89 1.47 1.11 0.52 2.33 0.52h40.5q0.93-0.04 1.8-0.38 0.87-0.35 1.58-0.96 0.7-0.61 1.17-1.43 0.46-0.81 0.63-1.73zm-184.88-70.85q-0.46 3.9-1.6 7.66-1.14 3.76-2.94 7.26-1.8 3.5-4.19 6.62-2.39 3.12-5.29 5.76-3.67 2.28-7.64 3.95-3.97 1.67-8.16 2.69-4.19 1.02-8.49 1.37-4.29 0.35-8.59 0.02h-17.8l12.88-66.28h23.02c16.92 0 23.73 3.62 26.48 6.65q1.57 2.74 2.53 5.75 0.95 3.01 1.26 6.15 0.3 3.14-0.07 6.28-0.38 3.13-1.4 6.12z"/>
	<path class="s2" d="m588.65 117.3c-3.56-3.57-7.51-6.74-11.76-9.46-4.25-2.71-8.78-4.96-13.51-6.7-4.74-1.74-9.65-2.95-14.65-3.63-5-0.67-10.05-0.8-15.08-0.39l-77.27 0.01q-0.96 0-1.85 0.32-0.9 0.32-1.64 0.92-0.73 0.61-1.22 1.43-0.49 0.82-0.67 1.75l-35.85 184.5q-0.23 1.2 0.08 2.39 0.3 1.18 1.08 2.12 0.78 0.94 1.89 1.47 1.1 0.52 2.32 0.52h40.2q0.96 0 1.85-0.32 0.9-0.32 1.64-0.93 0.73-0.6 1.22-1.42 0.49-0.82 0.67-1.75l8.67-44.63h30q4.96 0.13 9.92-0.12 4.96-0.24 9.88-0.87 4.92-0.63 9.78-1.63 4.86-1.01 9.63-2.38 4.01-1.33 7.85-3.09 3.85-1.76 7.47-3.93 3.63-2.18 6.99-4.73 3.37-2.56 6.44-5.47 5.22-4.72 9.61-10.22 4.39-5.5 7.82-11.65 3.43-6.14 5.81-12.76 2.39-6.63 3.66-13.55c1.34-4.74 2.11-9.62 2.31-14.54 0.2-4.92-0.17-9.84-1.12-14.67-0.95-4.83-2.47-9.54-4.52-14.01-2.05-4.48-4.62-8.7-7.65-12.58zm-41.68 50.85q-0.45 3.9-1.59 7.66-1.15 3.76-2.94 7.26-1.8 3.5-4.19 6.62-2.39 3.12-5.3 5.76-3.67 2.28-7.65 3.95-3.99 1.67-8.18 2.69-4.2 1.02-8.51 1.36-4.3 0.34-8.61 0h-17.75l12.88-66.28h23.02c16.92 0 23.73 3.63 26.48 6.65q1.57 2.74 2.54 5.75 0.96 3.02 1.26 6.16 0.31 3.15-0.06 6.29-0.37 3.14-1.4 6.13z"/>
	<path class="s3" d="m106.53 287.1h40.19l9.53-49.05h34.43q4.74 0.13 9.48-0.11 4.74-0.23 9.45-0.83 4.71-0.6 9.36-1.56 4.64-0.96 9.2-2.28 3.74-1.23 7.32-2.87 3.58-1.64 6.95-3.66 3.38-2.03 6.51-4.41 3.13-2.39 5.97-5.11 4.91-4.41 9.04-9.57 4.12-5.17 7.34-10.93 3.22-5.77 5.45-11.98 2.24-6.22 3.43-12.71c1.25-4.33 2-8.78 2.22-13.28 0.21-4.5-0.1-9-0.93-13.43-0.83-4.42-2.18-8.73-4.02-12.84-1.84-4.11-4.16-7.99-6.9-11.56-3.31-3.27-6.97-6.17-10.9-8.66-3.94-2.48-8.14-4.53-12.52-6.1-4.38-1.58-8.92-2.67-13.53-3.27-4.62-0.59-9.29-0.68-13.92-0.27h-77.18zm97.93-155.4q4.04-0.5 8.11-0.21 4.06 0.3 7.99 1.38 3.93 1.09 7.57 2.93 3.64 1.84 6.85 4.35 2.07 3.19 3.37 6.76 1.31 3.57 1.78 7.34 0.47 3.77 0.08 7.55-0.38 3.78-1.6 7.38-0.54 4.39-1.85 8.62-1.32 4.22-3.37 8.14-2.06 3.92-4.79 7.4-2.73 3.48-6.05 6.42-4 2.57-8.36 4.48-4.37 1.9-8.98 3.08-4.62 1.18-9.36 1.6-4.74 0.43-9.49 0.09h-24.45l15-77.23z"/>
	<path class="s3" d="m309.68 53.55h40l-9.68 49.05h35.53q6.07-0.63 12.15-0.2 6.09 0.44 12.01 1.94 5.92 1.49 11.48 4 5.57 2.52 10.61 5.96c2.23 2.54 4.12 5.35 5.62 8.38 1.5 3.03 2.59 6.24 3.26 9.55 0.67 3.31 0.9 6.7 0.68 10.07-0.21 3.37-0.86 6.7-1.94 9.9l-16.67 85.85h-40.48l15.88-81.63q0.82-2.33 1.12-4.79 0.29-2.47 0.03-4.93-0.26-2.47-1.06-4.81-0.8-2.35-2.09-4.46-2.16-1.55-4.56-2.66-2.4-1.11-4.97-1.75-2.57-0.64-5.21-0.79-2.64-0.15-5.26 0.19l-31.88 0.01-20.55 105.7h-40z"/>
	<path class="s3" d="m420.25 287.1h40.2l9.53-49.05h34.42q4.74 0.13 9.49-0.11 4.74-0.23 9.44-0.83 4.71-0.6 9.36-1.56 4.65-0.96 9.21-2.28 3.74-1.23 7.31-2.87 3.58-1.64 6.96-3.66 3.37-2.03 6.5-4.41 3.13-2.39 5.98-5.11 4.91-4.41 9.03-9.57 4.12-5.17 7.34-10.93 3.22-5.77 5.46-11.98 2.23-6.22 3.42-12.71c1.26-4.33 2-8.78 2.22-13.28 0.22-4.5-0.09-9-0.93-13.43-0.83-4.42-2.18-8.73-4.02-12.84-1.84-4.11-4.15-7.99-6.9-11.56-3.3-3.27-6.96-6.17-10.9-8.66-3.94-2.48-8.13-4.53-12.51-6.1-4.38-1.58-8.92-2.67-13.54-3.27-4.62-0.59-9.28-0.68-13.92-0.27h-77.3zm97.93-155.4q4.04-0.5 8.11-0.21 4.06 0.3 7.99 1.38 3.93 1.09 7.57 2.93 3.64 1.84 6.85 4.35 2.07 3.19 3.37 6.76 1.31 3.57 1.78 7.34 0.47 3.77 0.08 7.55-0.38 3.78-1.61 7.38-0.53 4.39-1.84 8.62-1.32 4.22-3.37 8.14-2.06 3.92-4.79 7.4-2.73 3.48-6.04 6.42-4.02 2.58-8.39 4.49-4.38 1.9-9 3.08-4.62 1.18-9.38 1.6-4.75 0.42-9.51 0.07l-24.45 0.01 15-77.23z"/>
</svg>