<svg version="1.2" xmlns="http://www.w3.org/2000/svg" viewBox="0 0 525 525" width="200" height="200">
	<style>
		.s0 { fill: #000000 } 
	</style>
	<path class="s0" d="m15.5 15.5c4.64-4.64 10.15-8.32 16.22-10.83 6.06-2.52 12.57-3.81 19.13-3.81 6.56 0 13.07 1.29 19.13 3.81 6.07 2.51 11.58 6.19 16.22 10.83l176.8 176.8 176.8-176.8c9.43-9.11 22.06-14.15 35.17-14.03 13.11 0.11 25.65 5.37 34.92 14.64 9.27 9.27 14.53 21.81 14.64 34.92 0.12 13.11-4.92 25.74-14.03 35.17l-176.8 176.8 176.8 176.8c9.11 9.43 14.15 22.06 14.03 35.17-0.11 13.11-5.37 25.65-14.64 34.92-9.27 9.27-21.81 14.53-34.92 14.64-13.11 0.12-25.74-4.92-35.17-14.03l-176.8-176.8-176.8 176.8c-9.43 9.11-22.06 14.15-35.17 14.03-13.11-0.11-25.65-5.37-34.92-14.64-9.27-9.27-14.53-21.81-14.64-34.92-0.12-13.11 4.92-25.74 14.03-35.17l176.8-176.8-176.8-176.8c-4.64-4.64-8.32-10.15-10.83-16.22-2.52-6.06-3.81-12.57-3.81-19.13 0-6.56 1.29-13.07 3.81-19.13 2.51-6.07 6.19-11.58 10.83-16.22z"/>
</svg>