<svg version="1.2" xmlns="http://www.w3.org/2000/svg" viewBox="0 0 800 560" width="800" height="560">
	<style>
		.s0 { fill: #000000 } 
	</style>
	<g id="Page-1">
		<g id="Dribbble-Light-Preview">
			<g id="icons">
				<path id="youtube-[#168]" fill-rule="evenodd" class="s0" d="m755.83 520.98c-15.02 14.68-34.07 24.69-55.58 28.44-233.53 17.59-544.51 10.61-604.88-1.87-21.55-4.35-40.32-14.05-54.02-28.13-10.64-10.65-19.09-26.88-25.62-49.38-15.54-51.98-35.74-372.86 28.72-432.7 15.3-14.08 33.11-23.13 53.12-26.88 73.27-13.97 530.64-13.93 603.95 0 24.95 4.66 48.37 18.75 62.12 36.86 47.73 75.15 51.8 414.06-7.81 473.66zm-221.89-249.24c-73-39.05-134.71-75.27-214.4-112.77v224.47c79.69-40.85 154.19-78.31 214.4-111.7z"/>
			</g>
		</g>
	</g>
</svg>