<svg width="27" height="26" viewBox="0 0 27 26" fill="none" xmlns="http://www.w3.org/2000/svg">
<path fill-rule="evenodd" clip-rule="evenodd" d="M14.25 1.5C14.25 1.10218 14.092 0.720644 13.8107 0.43934C13.5294 0.158035 13.1478 0 12.75 0C12.3522 0 11.9706 0.158035 11.6893 0.43934C11.408 0.720644 11.25 1.10218 11.25 1.5V13.11L5.5095 7.89C5.36373 7.75743 5.19328 7.65487 5.00788 7.58818C4.82247 7.52148 4.62575 7.49196 4.42894 7.50129C4.23212 7.51062 4.03907 7.55863 3.86081 7.64257C3.68255 7.7265 3.52257 7.84473 3.39 7.9905C3.25743 8.13627 3.15487 8.30672 3.08818 8.49212C3.02148 8.67753 2.99196 8.87425 3.00129 9.07106C3.01062 9.26788 3.05863 9.46093 3.14257 9.63919C3.2265 9.81745 3.34473 9.97743 3.4905 10.11L11.7405 17.61C12.0167 17.8613 12.3766 18.0005 12.75 18.0005C13.1234 18.0005 13.4833 17.8613 13.7595 17.61L22.0095 10.11C22.3039 9.84226 22.4799 9.46855 22.4987 9.07106C22.5176 8.67358 22.3777 8.28489 22.11 7.9905C21.8423 7.69611 21.4685 7.52014 21.0711 7.50129C20.6736 7.48244 20.2849 7.62226 19.9905 7.89L14.25 13.11V1.5ZM2.4075 15.306C2.18508 15.137 1.9199 15.0335 1.64181 15.0071C1.36372 14.9806 1.08379 15.0324 0.833537 15.1565C0.583286 15.2806 0.372663 15.4722 0.225394 15.7095C0.0781255 15.9469 6.2977e-05 16.2207 0 16.5V22.3005C0.00107972 22.7238 0.0909309 23.1422 0.263751 23.5286C0.436571 23.915 0.688517 24.2609 1.00332 24.5439C1.31812 24.8269 1.68878 25.0407 2.09135 25.1716C2.49393 25.3024 2.91947 25.3473 3.3405 25.3035C5.4765 25.083 9.2805 24.75 12.75 24.75C16.329 24.75 20.622 25.104 22.9425 25.3245C23.3609 25.3646 23.7831 25.3169 24.182 25.1844C24.5809 25.052 24.9478 24.8377 25.2591 24.5553C25.5705 24.2729 25.8194 23.9286 25.99 23.5445C26.1607 23.1604 26.2492 22.7448 26.25 22.3245V16.5C26.25 16.1022 26.092 15.7206 25.8107 15.4393C25.5294 15.158 25.1478 15 24.75 15C24.3522 15 23.9706 15.158 23.6893 15.4393C23.408 15.7206 23.25 16.1022 23.25 16.5V22.326L2.4075 15.306ZM2.4075 15.306L23.2455 22.3305C23.2426 22.3338 23.239 22.3363 23.235 22.338H23.226C20.889 22.116 16.4775 21.75 12.75 21.75C9.126 21.75 5.199 22.095 3.033 22.32H3.0195C3.01133 22.3168 3.00446 22.311 3 22.3035V16.5C3.00035 16.2689 2.94718 16.0408 2.84465 15.8336C2.74211 15.6265 2.5915 15.4459 2.4075 15.306Z" fill="black"/>
</svg>
